<svg width="140" height="32" viewBox="0 0 140 32" fill="none" xmlns="http://www.w3.org/2000/svg">
  <path d="M0 0h140v32H0z" fill="none"/>
  <path d="M32.5 8.9c-.7-.8-1.8-1.3-3.1-1.3-2.8 0-4.7 2.1-4.7 5.2 0 3 1.9 5.2 4.7 5.2 1.3 0 2.4-.5 3.1-1.3v1.1h2.4V7.8h-2.4v1.1zm-2.8 7c-1.8 0-2.8-1.3-2.8-3.1s1-3.1 2.8-3.1c1.8 0 2.8 1.3 2.8 3.1s-1 3.1-2.8 3.1zm11.4-7.2c-2.8 0-4.7 2.1-4.7 5.2 0 3 1.9 5.2 4.7 5.2 2.8 0 4.7-2.1 4.7-5.2-.1-3-2-5.2-4.7-5.2zm0 8.3c-1.8 0-2.8-1.3-2.8-3.1s1-3.1 2.8-3.1c1.8 0 2.8 1.3 2.8 3.1s-1 3.1-2.8 3.1zm11.4-8.3c-2.8 0-4.7 2.1-4.7 5.2 0 3 1.9 5.2 4.7 5.2 2.8 0 4.7-2.1 4.7-5.2-.1-3-2-5.2-4.7-5.2zm0 8.3c-1.8 0-2.8-1.3-2.8-3.1s1-3.1 2.8-3.1c1.8 0 2.8 1.3 2.8 3.1s-1 3.1-2.8 3.1z" fill="#44FFEE"/>
  <path d="M14.7 7.8v9.8h2.4v-1.1c.7.8 1.8 1.3 3.1 1.3 2.8 0 4.7-2.1 4.7-5.2 0-3-1.9-5.2-4.7-5.2-1.3 0-2.4.5-3.1 1.3V7.8h-2.4zm5.2 8c-1.8 0-2.8-1.3-2.8-3.1s1-3.1 2.8-3.1c1.8 0 2.8 1.3 2.8 3.1s-1 3.1-2.8 3.1z" fill="#44FFEE"/>
</svg>